# xmcd
#
# Track frame offsets:
#	150
#	20241
#	43300
#	75641
#	91608
#	112755
#	149666
#	171683
#	192283
#	213934
#	241058
#	260649
#
# Disc length: 3776 seconds
#
# Revision: 4294901758
# Processed by: cddbd v1.5.2PL0 Copyright (c) Steve Scherf et al.
# Submitted via: EZCDAudioConverter 8.0.2.1
#
DISCID=a90ebe0c
DTITLE=Various Artist - st. Lam Phương. Đèn Khuya
DYEAR=2011
DGENRE=Indie - Alternative
TTITLE0=Mai Thiên Vân - Đèn Khuya
TTITLE1=Quang Lê - Xin thời gian qua mau
TTITLE2=Thái Châu, Hương Lan - LK Tình chết theo mùa đông, Giọt lệ sầu
TTITLE3=Hương Thủy - Rừng xưa
TTITLE4=Như Quỳnh - Thuyền không bến đỗ
TTITLE5=Phi Nhung, Duy Trường - LK Khóc thầm - Buồn chi em ơi
TTITLE6=Nguyễn Hưng - Lầm
TTITLE7=Hoàng Lan - Chỉ còn là kỷ niệm
TTITLE8=Như Quỳnh - Đoạn cuối một cuộc tình
TTITLE9=Quang Lê - Nắng đẹp miền Nam
TTITLE10=Mai Thiên Vân - Bài tango cho em
TTITLE11=Phương Diễm Hạnh - Ngày buồn
EXTD=
EXTT0=
EXTT1=
EXTT2=
EXTT3=
EXTT4=
EXTT5=
EXTT6=
EXTT7=
EXTT8=
EXTT9=
EXTT10=
EXTT11=
PLAYORDER=
